<svg xmlns="http://www.w3.org/2000/svg" xmlns:xlink="http://www.w3.org/1999/xlink" width="230.008" height="59.273" viewBox="0 0 230.008 59.273">
  <defs>
    <linearGradient id="linear-gradient" y1="0.5" x2="1" y2="0.5" gradientUnits="objectBoundingBox">
      <stop offset="0.473" stop-color="#dc0038"/>
      <stop offset="1" stop-color="#990015"/>
    </linearGradient>
    <radialGradient id="radial-gradient" cx="0.5" cy="0.5" r="0.377" gradientTransform="translate(-0.854) scale(2.707 1)" gradientUnits="objectBoundingBox">
      <stop offset="0" stop-color="#e8e8e8"/>
      <stop offset="1" stop-color="#4a4a4a"/>
    </radialGradient>
    <radialGradient id="radial-gradient-2" cx="0.5" cy="0.5" r="0.377" xlink:href="#radial-gradient"/>
    <radialGradient id="radial-gradient-3" cx="0.5" cy="0.5" r="1.02" gradientTransform="translate(0.315) scale(0.369 1)" xlink:href="#radial-gradient"/>
  </defs>
  <g id="Raggruppa_80" data-name="Raggruppa 80" transform="translate(-114.377 70.84)">
    <g id="Raggruppa_33" data-name="Raggruppa 33" transform="translate(186.885 -55.903)">
      <path id="Tracciato_124" data-name="Tracciato 124" d="M153.987,337.147v6.578a.212.212,0,0,0,.239.24h9.23a.624.624,0,0,1,.559.562v3.407a.516.516,0,0,1-.18.4.565.565,0,0,1-.379.16h-9.23a.211.211,0,0,0-.239.24v7.018a.213.213,0,0,0,.239.241h11.188a.488.488,0,0,1,.4.2.645.645,0,0,1,.16.4v3.329a.57.57,0,0,1-.16.381.509.509,0,0,1-.4.18H149.752a.511.511,0,0,1-.4-.18.57.57,0,0,1-.16-.381V332.977a.567.567,0,0,1,.16-.38.512.512,0,0,1,.4-.18h15.662a.51.51,0,0,1,.4.18.568.568,0,0,1,.16.38V336.3a.647.647,0,0,1-.16.4.49.49,0,0,1-.4.2H154.226A.212.212,0,0,0,153.987,337.147Z" transform="translate(-149.192 -332.054)" fill="url(#linear-gradient)"/>
      <path id="Tracciato_125" data-name="Tracciato 125" d="M203.1,332.416a13.574,13.574,0,0,1,5.433,1.1,14.359,14.359,0,0,1,4.476,3.008,14.038,14.038,0,0,1,3.016,4.451,13.569,13.569,0,0,1,1.1,5.434,13.821,13.821,0,0,1-1.1,5.495,13.98,13.98,0,0,1-3.016,4.471,14.348,14.348,0,0,1-4.476,3.007,13.557,13.557,0,0,1-5.433,1.1h-8.751a.471.471,0,0,1-.359-.18.57.57,0,0,1-.16-.381V332.977a.567.567,0,0,1,.16-.38.472.472,0,0,1,.359-.18Zm-.48,23.5a9.46,9.46,0,0,0,3.736-.721,8.874,8.874,0,0,0,4.875-4.993,10.1,10.1,0,0,0,.7-3.79,9.944,9.944,0,0,0-.7-3.769,9.122,9.122,0,0,0-1.938-2.987,8.989,8.989,0,0,0-2.937-1.985,9.45,9.45,0,0,0-3.736-.723h-3.835a.213.213,0,0,0-.24.241v18.487a.212.212,0,0,0,.24.24Z" transform="translate(-170.295 -332.054)" fill="#fff"/>
      <path id="Tracciato_126" data-name="Tracciato 126" d="M271.552,359.4a.528.528,0,0,1-.52.762h-3.515a1,1,0,0,1-1-.682l-.24-.562q-.2-.44-.579-1.3t-1.1-2.546a.234.234,0,0,0-.2-.121H252.214a.184.184,0,0,0-.2.121l-2,4.411a1.413,1.413,0,0,1-.34.481.887.887,0,0,1-.62.2h-3.517a.574.574,0,0,1-.48-.2.46.46,0,0,1,0-.521c0,.026.02-.006.061-.1s.172-.4.4-.923.593-1.336,1.1-2.446,1.224-2.679,2.157-4.711,2.117-4.605,3.556-7.721,3.209-6.943,5.313-11.489a.511.511,0,0,1,.479-.321h.4a.542.542,0,0,1,.379.1,1.444,1.444,0,0,1,.18.22c.081.16.233.495.46,1s.592,1.317,1.1,2.426,1.218,2.681,2.137,4.712,2.09,4.605,3.515,7.72S269.474,354.858,271.552,359.4Zm-9.191-8.5a.264.264,0,0,0,.18-.119c.067-.081.073-.147.021-.2l-4.036-8.942a.261.261,0,0,0-.44,0l-4.036,8.942a.161.161,0,0,0-.02.2.223.223,0,0,0,.22.119Z" transform="translate(-194.479 -331.732)" fill="#fff"/>
      <path id="Tracciato_127" data-name="Tracciato 127" d="M322.7,360.226a.6.6,0,0,1-.559.261h-4.355a.689.689,0,0,1-.4-.14.826.826,0,0,1-.279-.3l-5.634-9.1a.235.235,0,0,0-.2-.121.23.23,0,0,0-.2.121l-5.794,9.263a2.644,2.644,0,0,1-.2.18.483.483,0,0,1-.32.1h-4.395a.569.569,0,0,1-.559-.8l8.39-13.395a.361.361,0,0,0,0-.4l-8.07-12.673a.592.592,0,0,1,.02-.541.556.556,0,0,1,.539-.26h4.675a.428.428,0,0,1,.279.1c.08.067.146.127.2.18l5.154,8.583a.227.227,0,0,0,.4,0l5.154-8.422a1.027,1.027,0,0,1,.24-.3.526.526,0,0,1,.359-.139h4.715a.527.527,0,0,1,.479.26.566.566,0,0,1,.04.541l-8.111,12.673a.367.367,0,0,0,0,.4l8.391,13.395v-.04A.522.522,0,0,1,322.7,360.226Z" transform="translate(-220.373 -332.054)" fill="#fff"/>
      <path id="Tracciato_128" data-name="Tracciato 128" d="M363.983,332.416a8.492,8.492,0,0,1,3.416.7A9.427,9.427,0,0,1,370.237,335a8.706,8.706,0,0,1,1.917,2.787,8.452,8.452,0,0,1,.7,3.409,8.684,8.684,0,0,1-.7,3.469,9.084,9.084,0,0,1-4.735,4.773,8.352,8.352,0,0,1-3.395.7h-4.276a.211.211,0,0,0-.239.24v9.545a.623.623,0,0,1-.56.561h-3.675a.511.511,0,0,1-.4-.18.568.568,0,0,1-.159-.381V332.977a.566.566,0,0,1,.159-.38.512.512,0,0,1,.4-.18Zm-.359,13.193a4.227,4.227,0,0,0,1.678-.341,4.356,4.356,0,0,0,1.4-.943,4.69,4.69,0,0,0,.959-1.4,4.271,4.271,0,0,0,.36-1.765,3.809,3.809,0,0,0-.36-1.644,4.1,4.1,0,0,0-.959-1.3,4.647,4.647,0,0,0-1.4-.862,4.464,4.464,0,0,0-1.678-.321h-3.876a.211.211,0,0,0-.239.24v8.1a.212.212,0,0,0,.239.24Z" transform="translate(-246.359 -332.054)" fill="#fff"/>
      <path id="Tracciato_129" data-name="Tracciato 129" d="M417.812,337.464a5.455,5.455,0,0,1,.48-.42q.278-.221.72.139a5.512,5.512,0,0,1,1.118,1.484,15.755,15.755,0,0,1,1.02,2.266,18.106,18.106,0,0,1,.739,2.668,13.8,13.8,0,0,1,.28,2.687,14.293,14.293,0,0,1-4.2,10.206,14.557,14.557,0,0,1-4.575,3.068,14.593,14.593,0,0,1-11.227,0,14.527,14.527,0,0,1-4.555-23.521,14.609,14.609,0,0,1,4.555-3.087,13.861,13.861,0,0,1,5.614-1.143,14.055,14.055,0,0,1,6.392,1.484.7.7,0,0,1,.32,1c-.053.079-.154.267-.3.561s-.314.608-.5.942-.367.648-.539.943-.287.481-.339.561a.582.582,0,0,1-.521.341,1.513,1.513,0,0,1-.719-.141,9.232,9.232,0,0,0-3.795-.8,8.973,8.973,0,0,0-3.677.763,9.853,9.853,0,0,0-3.016,2.066,9.548,9.548,0,0,0-2.038,3.047,9.4,9.4,0,0,0-.739,3.71,9.251,9.251,0,0,0,.739,3.69,9.6,9.6,0,0,0,5.054,5.073,9.158,9.158,0,0,0,3.677.741A9.381,9.381,0,0,0,414.5,353a10.063,10.063,0,0,0,2.037-3.027,9.071,9.071,0,0,0,.759-3.69,8.32,8.32,0,0,0-.16-1.585,14.467,14.467,0,0,0-.4-1.583,9.672,9.672,0,0,0-.56-1.4,4.632,4.632,0,0,0-.64-1,.789.789,0,0,1-.239-.422.592.592,0,0,1,.039-.38,2.175,2.175,0,0,1,.2-.321q.6-.521,1.04-.963c.265-.24.519-.481.758-.721A4.487,4.487,0,0,1,417.812,337.464Z" transform="translate(-264.668 -331.769)" fill="#fff"/>
    </g>
    <g id="Raggruppa_32" data-name="Raggruppa 32" transform="translate(114.377 -70.84)">
      <g id="Raggruppa_31" data-name="Raggruppa 31" transform="translate(0 0)">
        <path id="Tracciato_120" data-name="Tracciato 120" d="M5.511,1046.036a20.509,20.509,0,0,1,5.711-14.2l-7.012-6.957a30.389,30.389,0,0,0-.117,42.184l7.022-6.952A20.5,20.5,0,0,1,5.511,1046.036Z" transform="translate(4.361 -1009.421)" fill="url(#radial-gradient)"/>
        <path id="Tracciato_121" data-name="Tracciato 121" d="M53.17,1096.954a20.51,20.51,0,0,1-14.2-5.711l-6.956,7.012a30.39,30.39,0,0,0,42.185.117l-6.953-7.022A20.5,20.5,0,0,1,53.17,1096.954Z" transform="translate(-16.542 -1047.552)" fill="url(#linear-gradient)"/>
        <path id="Tracciato_122" data-name="Tracciato 122" d="M104.068,1013.391a20.508,20.508,0,0,1-5.711,14.2l7.012,6.956a30.389,30.389,0,0,0,.117-42.184l-7.022,6.953A20.5,20.5,0,0,1,104.068,1013.391Z" transform="translate(-54.661 -990.733)" fill="url(#radial-gradient-2)"/>
        <path id="Tracciato_123" data-name="Tracciato 123" d="M20.476,998.407a20.508,20.508,0,0,1,14.2,5.711l6.956-7.012a30.39,30.39,0,0,0-42.185-.117L6.4,1004.01A20.5,20.5,0,0,1,20.476,998.407Z" transform="translate(2.175 -988.535)" fill="url(#radial-gradient-3)"/>
      </g>
    </g>
  </g>
</svg>
