<svg xmlns="http://www.w3.org/2000/svg" width="16" height="16" viewBox="0 0 16 16">
  <g id="icona_restore" transform="translate(-1183.99 -0.001)">
    <path id="icona" d="M10.643,4.5C6.856,4.5,3.786,7.858,3.786,12H1.5l2.964,3.242.053.117L7.6,12H5.31a5.6,5.6,0,0,1,5.333-5.833A5.6,5.6,0,0,1,15.976,12a5.6,5.6,0,0,1-5.333,5.833,5.076,5.076,0,0,1-3.764-1.717L5.8,17.3a6.544,6.544,0,0,0,4.846,2.2c3.787,0,6.857-3.358,6.857-7.5S14.43,4.5,10.643,4.5ZM9.881,8.667v4.167l3.261,2.117.549-1.008-2.667-1.733V8.667Z" transform="translate(1182.49 -3.5)" fill="currentColor"/>
    <g id="contenitore" transform="translate(1183.99 0.001)" fill="currentColor" stroke="currentColor" stroke-width="1" opacity="0">
      <rect width="16" height="16" stroke="none"/>
      <rect x="0.5" y="0.5" width="15" height="15" fill="none"/>
    </g>
  </g>
</svg>
